HIERARCHY
ROOT Hips
{
	OFFSET 0.00000 0.00000 0.00000
	CHANNELS 6 Xposition Yposition Zposition Zrotation Yrotation Xrotation 
	JOINT LHipJoint
	{
		OFFSET 0 0 0
		CHANNELS 3 Zrotation Yrotation Xrotation
		JOINT LeftUpLeg
		{
			OFFSET 1.36337 -1.57426 1.11036
			CHANNELS 3 Zrotation Yrotation Xrotation
			JOINT LeftLeg
			{
				OFFSET 2.38468 -6.55187 0.00000
				CHANNELS 3 Zrotation Yrotation Xrotation
				JOINT LeftFoot
				{
					OFFSET 2.37166 -6.51609 0.00000
					CHANNELS 3 Zrotation Yrotation Xrotation
					JOINT LeftToeBase
					{
						OFFSET 0.29078 -0.79891 2.01393
						CHANNELS 3 Zrotation Yrotation Xrotation
						End Site
						{
							OFFSET 0.00000 -0.00000 1.07924
						}
					}
				}
			}
		}
	}
	JOINT RHipJoint
	{
		OFFSET 0 0 0
		CHANNELS 3 Zrotation Yrotation Xrotation
		JOINT RightUpLeg
		{
			OFFSET -1.36349 -1.57426 1.11036
			CHANNELS 3 Zrotation Yrotation Xrotation
			JOINT RightLeg
			{
				OFFSET -2.29562 -6.30717 0.00000
				CHANNELS 3 Zrotation Yrotation Xrotation
				JOINT RightFoot
				{
					OFFSET -2.40985 -6.62100 0.00000
					CHANNELS 3 Zrotation Yrotation Xrotation
					JOINT RightToeBase
					{
						OFFSET -0.23197 -0.63733 1.92232
						CHANNELS 3 Zrotation Yrotation Xrotation
						End Site
						{
							OFFSET -0.00000 -0.00000 1.01562
						}
					}
				}
			}
		}
	}
	JOINT LowerBack
	{
		OFFSET 0 0 0
		CHANNELS 3 Zrotation Yrotation Xrotation
		JOINT Spine
		{
			OFFSET -0.08565 2.03602 -0.24562
			CHANNELS 3 Zrotation Yrotation Xrotation
			JOINT Spine1
			{
				OFFSET -0.00036 2.05693 0.00216
				CHANNELS 3 Zrotation Yrotation Xrotation
				JOINT Neck
				{
					OFFSET 0 0 0
					CHANNELS 3 Zrotation Yrotation Xrotation
					JOINT Neck1
					{
						OFFSET -0.03664 1.69515 0.31789
						CHANNELS 3 Zrotation Yrotation Xrotation
						JOINT Head
						{
							OFFSET 0.00932 1.70181 -0.46013
							CHANNELS 3 Zrotation Yrotation Xrotation
							End Site
							{
								OFFSET 0.01243 1.77620 -0.19377
							}
						}
					}
				}
				JOINT LeftShoulder
				{
					OFFSET 0 0 0
					CHANNELS 3 Zrotation Yrotation Xrotation
					JOINT LeftArm
					{
						OFFSET 3.74344 0.81315 -0.36647
						CHANNELS 3 Zrotation Yrotation Xrotation
						JOINT LeftForeArm
						{
							OFFSET 4.97185 -0.00000 -0.00000
							CHANNELS 3 Zrotation Yrotation Xrotation
							JOINT LeftHand
							{
								OFFSET 3.35811 -0.00000 0.00000
								CHANNELS 3 Zrotation Yrotation Xrotation
								JOINT LeftFingerBase
								{
									OFFSET 0 0 0
									CHANNELS 3 Zrotation Yrotation Xrotation
									JOINT LeftHandIndex1
									{
										OFFSET 0.62278 -0.00000 0.00000
										CHANNELS 3 Zrotation Yrotation Xrotation
										End Site
										{
											OFFSET 0.50210 -0.00000 0.00000
										}
									}
								}
								JOINT LThumb
								{
									OFFSET 0 0 0
									CHANNELS 3 Zrotation Yrotation Xrotation
									End Site
									{
										OFFSET 0.50976 -0.00000 0.50976
									}
								}
							}
						}
					}
				}
				JOINT RightShoulder
				{
					OFFSET 0 0 0
					CHANNELS 3 Zrotation Yrotation Xrotation
					JOINT RightArm
					{
						OFFSET -3.75385 0.50666 -0.06525
						CHANNELS 3 Zrotation Yrotation Xrotation
						JOINT RightForeArm
						{
							OFFSET -4.96493 -0.00000 -0.00000
							CHANNELS 3 Zrotation Yrotation Xrotation
							JOINT RightHand
							{
								OFFSET -3.34929 -0.00000 0.00000
								CHANNELS 3 Zrotation Yrotation Xrotation
								JOINT RightFingerBase
								{
									OFFSET 0 0 0
									CHANNELS 3 Zrotation Yrotation Xrotation
									JOINT RightHandIndex1
									{
										OFFSET -0.63804 -0.00000 0.00000
										CHANNELS 3 Zrotation Yrotation Xrotation
										End Site
										{
											OFFSET -0.51441 -0.00000 0.00000
										}
									}
								}
								JOINT RThumb
								{
									OFFSET 0 0 0
									CHANNELS 3 Zrotation Yrotation Xrotation
									End Site
									{
										OFFSET -0.52226 -0.00000 0.52226
									}
								}
							}
						}
					}
				}
			}
		}
	}
}
MOTION
Frames: 9
Frame Time: .0083333
-25.0625 16.6473 -0.1879 0 0 0 0 0 0 -21 0 0 0 0 0 0 0 0 0 0 0 0 0 0 21 0 0 0 0 0 0 0 0 0 0 0 0 0 0 0 0 0 0 0 0 0 0 -16 0 0 21 0 0 11 0 0 0 -8 0 0 0 0 0 0 0 0 0 0 0 0 0 0 0 0 0 0 0 0 8 0 0 0 0 0 0 0 0 0 0 0 0 0 0 0 0 0
-25.0625 16.6473 -0.1879 -158.7780 72.2517 -138.4170 0.0000 0.0000 0.0000 -1.4865 -15.3603 -28.1293 1.7289 8.2771 23.5588 0.6822 12.1080 -24.2961 0.2066 -2.9267 -8.0747 0.0000 0.0000 0.0000 20.0430 -1.9205 -11.9423 0.0000 -0.0000 0.0000 3.4488 -33.2143 -27.4301 -0.0362 -1.2287 3.3782 8.5136 5.1678 -21.2470 -0.2338 5.0240 -1.8092 -3.5500 2.8494 10.6469 20.2402 15.1043 -0.0914 -12.2453 23.3632 20.3088 -4.6106 11.9047 10.3460 0.0000 -0.0000 0.0000 -90.0981 -6.1813 35.1412 11.0246 -18.3260 -1.7837 -0.0000 0.0000 -0.8454 11.4535 7.0678 1.4281 -7.1250 0.0000 -0.0000 -12.9406 36.9099 2.6294 0.0000 -0.0000 0.0000 87.7325 -7.7257 18.5069 -20.8988 31.7100 -5.9966 0.0000 -0.0000 -10.8257 -11.5644 -29.9798 5.8381 7.1250 -0.0000 -0.0000 22.2552 -59.0615 -7.8907
-25.0625 16.6470 -0.1853 -158.4640 72.4018 -138.1580 0.0000 0.0000 0.0000 -1.5866 -14.9722 -28.1916 1.7379 8.2974 23.6212 0.7048 11.8042 -24.1873 0.1873 -2.7874 -7.6875 0.0000 0.0000 0.0000 20.0029 -1.7649 -11.8616 0.0000 -0.0000 0.0000 3.3847 -33.0773 -27.6047 -0.0462 -1.3874 3.8153 8.8159 5.2024 -20.8063 -0.3497 5.0578 -1.8907 -3.8694 2.8731 10.3554 20.1655 15.2378 -0.5032 -12.1524 23.5278 20.6609 -4.4950 11.9597 10.5564 0.0000 -0.0000 0.0000 -89.9064 -5.9661 35.4353 11.0465 -18.3596 -1.7906 -0.0000 0.0000 -0.4936 12.8449 5.5004 1.2521 -7.1250 0.0000 -0.0000 -11.5153 35.4231 2.7553 0.0000 -0.0000 0.0000 87.8976 -7.6614 18.6036 -20.8300 31.6294 -5.9605 0.0000 -0.0000 -10.7470 -11.4608 -29.5389 5.7080 7.1250 -0.0000 -0.0000 22.0284 -58.6332 -7.5767
-25.0600 16.6471 -0.1825 -158.8850 72.4726 -138.6120 0.0000 0.0000 0.0000 -1.8111 -14.8259 -28.1651 1.7307 8.2811 23.5713 0.7148 11.6540 -24.1263 0.1661 -2.6253 -7.2372 0.0000 0.0000 0.0000 19.8529 -1.8225 -11.8000 0.0000 0.0000 -0.0000 3.3116 -32.9169 -27.7887 -0.0622 -1.6094 4.4274 8.9707 5.2175 -20.4153 -0.5746 5.1029 -1.9353 -4.2189 2.8990 10.1334 20.1777 15.3490 -0.8747 -11.9906 23.5827 20.7879 -4.3942 11.9710 10.6602 0.0000 -0.0000 0.0000 -89.5500 -5.8541 36.1032 11.0850 -18.4184 -1.8027 -0.0000 0.0000 -0.3601 14.0799 5.5036 1.3780 -7.1250 0.0000 -0.0000 -10.5024 35.4887 2.4887 0.0000 -0.0000 0.0000 88.2544 -7.5594 18.4404 -20.7869 31.5788 -5.9380 0.0000 -0.0000 -10.5841 -11.4020 -29.3596 5.6469 7.1250 -0.0000 -0.0000 21.9557 -58.4550 -7.4551
-25.0514 16.6478 -0.1785 -159.3200 72.6595 -139.0730 0.0000 0.0000 0.0000 -2.1232 -14.6370 -28.0539 1.7205 8.2579 23.5002 0.7369 11.6088 -24.2700 0.1568 -2.5514 -7.0322 0.0000 0.0000 0.0000 19.6395 -1.7948 -11.7091 0.0000 0.0000 0.0000 3.3407 -32.9857 -27.7308 -0.0521 -1.4732 4.0519 9.0327 5.2689 -20.0933 -0.8333 5.2138 -1.9869 -4.5287 2.9534 9.9474 20.1911 15.4081 -1.0695 -11.7768 23.5462 20.7452 -4.3129 11.9533 10.6458 0.0000 -0.0000 0.0000 -89.1274 -5.7638 36.6669 11.1027 -18.4456 -1.8083 -0.0000 0.0000 -0.2901 14.9683 6.1218 1.6332 -7.1250 0.0000 -0.0000 -9.8641 36.1632 2.1692 0.0000 -0.0000 0.0000 88.6433 -7.5728 18.3009 -20.8135 31.6099 -5.9519 0.0000 -0.0000 -10.5464 -11.3823 -29.3995 5.6439 7.1250 -0.0000 -0.0000 22.0054 -58.4875 -7.4904
-25.0469 16.6499 -0.1758 -159.6670 72.8936 -139.3340 0.0000 0.0000 0.0000 -2.3094 -14.6601 -27.9959 1.7035 8.2191 23.3816 0.7245 11.7666 -24.3173 0.1620 -2.5929 -7.1473 0.0000 0.0000 0.0000 19.4161 -1.6610 -11.7522 0.0000 0.0000 -0.0000 3.3855 -33.0900 -27.6374 -0.0411 -1.3077 3.5959 9.1262 5.3354 -19.8061 -1.0835 5.3389 -2.0928 -4.8425 3.0139 9.7247 20.1429 15.4273 -1.3038 -11.5878 23.4770 20.7860 -4.2352 11.9160 10.6586 -0.0000 -0.0000 0.0000 -88.7475 -5.7014 36.9160 11.1613 -18.5350 -1.8269 -0.0000 0.0000 -0.6098 15.0648 6.3580 1.7073 -7.1250 0.0000 -0.0000 -9.8205 36.4090 2.0996 -0.0000 -0.0000 0.0000 88.9756 -7.6120 18.2301 -20.8394 31.6404 -5.9655 0.0000 -0.0000 -10.5786 -11.1487 -29.6376 5.5662 7.1250 -0.0000 -0.0000 22.4227 -58.6547 -7.7329
-25.0390 16.6518 -0.1722 -160.6520 73.0683 -140.2070 0.0000 0.0000 0.0000 -2.6497 -14.6842 -27.9736 1.6816 8.1688 23.2279 0.7061 11.7898 -24.1848 0.1480 -2.4792 -6.8319 0.0000 0.0000 0.0000 19.0934 -1.7005 -11.7961 0.0000 0.0000 -0.0000 3.2787 -32.8716 -27.9542 -0.0583 -1.5576 4.2845 9.3899 5.4683 -19.2620 -1.6325 5.5747 -2.3024 -5.5710 3.1327 9.3139 20.2218 15.4282 -1.9714 -11.1596 23.2737 21.1371 -4.0743 11.8209 10.8261 0.0000 -0.0000 0.0000 -87.9787 -5.5612 37.7135 11.2244 -18.6315 -1.8470 -0.0000 0.0000 -0.8663 15.8528 5.7630 1.6333 -7.1250 0.0000 -0.0000 -9.0787 35.8439 2.0642 0.0000 -0.0000 0.0000 89.7913 -7.6610 17.7736 -20.8172 31.6144 -5.9538 0.0000 -0.0000 -10.4892 -10.4115 -29.8620 5.2273 7.1250 -0.0000 -0.0000 23.3483 -58.6965 -8.0981
-25.0315 16.6554 -0.1683 -161.2530 73.1930 -140.6360 0.0000 0.0000 0.0000 -2.8557 -14.6276 -28.0437 1.6521 8.1003 23.0191 0.6812 11.8814 -24.0623 0.1369 -2.3852 -6.5713 0.0000 0.0000 0.0000 18.9029 -1.6713 -11.9158 0.0000 -0.0000 0.0000 3.1610 -32.6453 -28.3421 -0.0819 -1.8455 5.0789 9.1955 5.4747 -19.4570 -1.7301 5.6167 -2.3270 -5.5453 3.1501 9.3924 20.3448 15.3477 -1.9278 -11.2616 23.1800 21.1164 -4.1472 11.7823 10.8244 0.0000 0.0000 0.0000 -87.9070 -5.5787 37.6718 11.1457 -18.5112 -1.8219 -0.0000 0.0000 -0.7014 17.3927 -3.5920 -1.1243 -7.1250 0.0000 -0.0000 -6.9960 26.2053 3.2101 0.0000 0.0000 0.0000 89.9302 -7.6327 17.6086 -20.8392 31.6402 -5.9654 0.0000 -0.0000 -10.5099 -9.7450 -29.9311 4.8978 7.1250 -0.0000 -0.0000 24.0811 -58.6117 -8.3216
-25.0262 16.6577 -0.1606 -161.5810 73.4397 -140.9190 0.0000 0.0000 0.0000 -3.0312 -14.6385 -27.8778 1.6184 8.0215 22.7794 0.6689 12.1433 -24.2182 0.1376 -2.3906 -6.5864 0.0000 0.0000 0.0000 18.7212 -1.5299 -11.8898 0.0000 0.0000 -0.0000 3.1368 -32.6052 -28.4395 -0.0866 -1.8981 5.2242 8.9898 5.5175 -19.4267 -1.8366 5.7311 -2.3553 -5.5152 3.1976 9.3563 20.4335 15.2862 -1.9056 -11.2415 23.0784 21.1038 -4.1739 11.7449 10.8068 -0.0000 0.0000 0.0000 -87.7150 -5.4868 38.0526 11.2134 -18.6146 -1.8435 -0.0000 0.0000 -0.9633 17.0675 1.0263 0.3151 -7.1250 0.0000 -0.0000 -7.5568 31.0017 2.6051 -0.0000 0.0000 0.0000 90.1261 -7.6801 17.4118 -20.9786 31.8034 -6.0387 0.0000 -0.0000 -10.5341 -9.5713 -30.1443 4.8402 7.1250 -0.0000 -0.0000 24.4251 -58.7657 -8.5412
